<svg width="95" height="112" viewBox="0 0 95 112" fill="none" xmlns="http://www.w3.org/2000/svg">
<path opacity="0.8" fill-rule="evenodd" clip-rule="evenodd" d="M92.0436 4C93.1507 4 94.0482 3.10457 94.0482 2C94.0482 0.895431 93.1507 0 92.0436 0C90.9365 0 90.0391 0.895431 90.0391 2C90.0391 3.10457 90.9365 4 92.0436 4ZM92.0436 22C93.1507 22 94.0482 21.1046 94.0482 20C94.0482 18.8954 93.1507 18 92.0436 18C90.9365 18 90.0391 18.8954 90.0391 20C90.0391 21.1046 90.9365 22 92.0436 22ZM92.0436 40C93.1507 40 94.0482 39.1046 94.0482 38C94.0482 36.8954 93.1507 36 92.0436 36C90.9365 36 90.0391 36.8954 90.0391 38C90.0391 39.1046 90.9365 40 92.0436 40ZM92.0436 58C93.1507 58 94.0482 57.1046 94.0482 56C94.0482 54.8954 93.1507 54 92.0436 54C90.9365 54 90.0391 54.8954 90.0391 56C90.0391 57.1046 90.9365 58 92.0436 58ZM92.0436 76C93.1507 76 94.0482 75.1046 94.0482 74C94.0482 72.8954 93.1507 72 92.0436 72C90.9365 72 90.0391 72.8954 90.0391 74C90.0391 75.1046 90.9365 76 92.0436 76ZM92.0436 94C93.1507 94 94.0482 93.1046 94.0482 92C94.0482 90.8954 93.1507 90 92.0436 90C90.9365 90 90.0391 90.8954 90.0391 92C90.0391 93.1046 90.9365 94 92.0436 94ZM4.00917 110C4.00917 111.105 3.11169 112 2.00459 112C0.897484 112 0 111.105 0 110C0 108.895 0.897484 108 2.00459 108C3.11169 108 4.00917 108.895 4.00917 110ZM20.0124 112C21.1195 112 22.017 111.105 22.017 110C22.017 108.895 21.1195 108 20.0124 108C18.9053 108 18.0078 108.895 18.0078 110C18.0078 111.105 18.9053 112 20.0124 112ZM40.0248 110C40.0248 111.105 39.1273 112 38.0202 112C36.9131 112 36.0156 111.105 36.0156 110C36.0156 108.895 36.9131 108 38.0202 108C39.1273 108 40.0248 108.895 40.0248 110ZM56.028 112C57.1351 112 58.0326 111.105 58.0326 110C58.0326 108.895 57.1351 108 56.028 108C54.9209 108 54.0234 108.895 54.0234 110C54.0234 111.105 54.9209 112 56.028 112ZM76.0404 110C76.0404 111.105 75.1429 112 74.0358 112C72.9287 112 72.0312 111.105 72.0312 110C72.0312 108.895 72.9287 108 74.0358 108C75.1429 108 76.0404 108.895 76.0404 110ZM94.0482 110C94.0482 111.105 93.1507 112 92.0436 112C90.9365 112 90.0391 111.105 90.0391 110C90.0391 108.895 90.9365 108 92.0436 108C93.1507 108 94.0482 108.895 94.0482 110ZM76.0404 92C76.0404 93.1046 75.1429 94 74.0358 94C72.9287 94 72.0312 93.1046 72.0312 92C72.0312 90.8954 72.9287 90 74.0358 90C75.1429 90 76.0404 90.8954 76.0404 92ZM56.028 94C57.1351 94 58.0326 93.1046 58.0326 92C58.0326 90.8954 57.1351 90 56.028 90C54.9209 90 54.0234 90.8954 54.0234 92C54.0234 93.1046 54.9209 94 56.028 94ZM40.0248 92C40.0248 93.1046 39.1273 94 38.0202 94C36.9131 94 36.0156 93.1046 36.0156 92C36.0156 90.8954 36.9131 90 38.0202 90C39.1273 90 40.0248 90.8954 40.0248 92ZM20.0124 94C21.1195 94 22.017 93.1046 22.017 92C22.017 90.8954 21.1195 90 20.0124 90C18.9053 90 18.0078 90.8954 18.0078 92C18.0078 93.1046 18.9053 94 20.0124 94ZM4.00917 92C4.00917 93.1046 3.11169 94 2.00459 94C0.897484 94 0 93.1046 0 92C0 90.8954 0.897484 90 2.00459 90C3.11169 90 4.00917 90.8954 4.00917 92ZM76.0404 74C76.0404 75.1046 75.1429 76 74.0358 76C72.9287 76 72.0312 75.1046 72.0312 74C72.0312 72.8954 72.9287 72 74.0358 72C75.1429 72 76.0404 72.8954 76.0404 74ZM56.028 76C57.1351 76 58.0326 75.1046 58.0326 74C58.0326 72.8954 57.1351 72 56.028 72C54.9209 72 54.0234 72.8954 54.0234 74C54.0234 75.1046 54.9209 76 56.028 76ZM40.0248 74C40.0248 75.1046 39.1273 76 38.0202 76C36.9131 76 36.0156 75.1046 36.0156 74C36.0156 72.8954 36.9131 72 38.0202 72C39.1273 72 40.0248 72.8954 40.0248 74ZM20.0124 76C21.1195 76 22.017 75.1046 22.017 74C22.017 72.8954 21.1195 72 20.0124 72C18.9053 72 18.0078 72.8954 18.0078 74C18.0078 75.1046 18.9053 76 20.0124 76ZM4.00917 74C4.00917 75.1046 3.11169 76 2.00459 76C0.897484 76 0 75.1046 0 74C0 72.8954 0.897484 72 2.00459 72C3.11169 72 4.00917 72.8954 4.00917 74ZM76.0404 56C76.0404 57.1046 75.1429 58 74.0358 58C72.9287 58 72.0312 57.1046 72.0312 56C72.0312 54.8954 72.9287 54 74.0358 54C75.1429 54 76.0404 54.8954 76.0404 56ZM56.028 58C57.1351 58 58.0326 57.1046 58.0326 56C58.0326 54.8954 57.1351 54 56.028 54C54.9209 54 54.0234 54.8954 54.0234 56C54.0234 57.1046 54.9209 58 56.028 58ZM40.0248 56C40.0248 57.1046 39.1273 58 38.0202 58C36.9131 58 36.0156 57.1046 36.0156 56C36.0156 54.8954 36.9131 54 38.0202 54C39.1273 54 40.0248 54.8954 40.0248 56ZM20.0124 58C21.1195 58 22.017 57.1046 22.017 56C22.017 54.8954 21.1195 54 20.0124 54C18.9053 54 18.0078 54.8954 18.0078 56C18.0078 57.1046 18.9053 58 20.0124 58ZM4.00917 56C4.00917 57.1046 3.11169 58 2.00459 58C0.897484 58 0 57.1046 0 56C0 54.8954 0.897484 54 2.00459 54C3.11169 54 4.00917 54.8954 4.00917 56ZM76.0404 38C76.0404 39.1046 75.1429 40 74.0358 40C72.9287 40 72.0312 39.1046 72.0312 38C72.0312 36.8954 72.9287 36 74.0358 36C75.1429 36 76.0404 36.8954 76.0404 38ZM56.028 40C57.1351 40 58.0326 39.1046 58.0326 38C58.0326 36.8954 57.1351 36 56.028 36C54.9209 36 54.0234 36.8954 54.0234 38C54.0234 39.1046 54.9209 40 56.028 40ZM40.0248 38C40.0248 39.1046 39.1273 40 38.0202 40C36.9131 40 36.0156 39.1046 36.0156 38C36.0156 36.8954 36.9131 36 38.0202 36C39.1273 36 40.0248 36.8954 40.0248 38ZM20.0124 40C21.1195 40 22.017 39.1046 22.017 38C22.017 36.8954 21.1195 36 20.0124 36C18.9053 36 18.0078 36.8954 18.0078 38C18.0078 39.1046 18.9053 40 20.0124 40ZM4.00917 38C4.00917 39.1046 3.11169 40 2.00459 40C0.897484 40 0 39.1046 0 38C0 36.8954 0.897484 36 2.00459 36C3.11169 36 4.00917 36.8954 4.00917 38ZM76.0404 20C76.0404 21.1046 75.1429 22 74.0358 22C72.9287 22 72.0312 21.1046 72.0312 20C72.0312 18.8954 72.9287 18 74.0358 18C75.1429 18 76.0404 18.8954 76.0404 20ZM56.028 22C57.1351 22 58.0326 21.1046 58.0326 20C58.0326 18.8954 57.1351 18 56.028 18C54.9209 18 54.0234 18.8954 54.0234 20C54.0234 21.1046 54.9209 22 56.028 22ZM40.0248 20C40.0248 21.1046 39.1273 22 38.0202 22C36.9131 22 36.0156 21.1046 36.0156 20C36.0156 18.8954 36.9131 18 38.0202 18C39.1273 18 40.0248 18.8954 40.0248 20ZM20.0124 22C21.1195 22 22.017 21.1046 22.017 20C22.017 18.8954 21.1195 18 20.0124 18C18.9053 18 18.0078 18.8954 18.0078 20C18.0078 21.1046 18.9053 22 20.0124 22ZM4.00917 20C4.00917 21.1046 3.11169 22 2.00459 22C0.897484 22 0 21.1046 0 20C0 18.8954 0.897484 18 2.00459 18C3.11169 18 4.00917 18.8954 4.00917 20ZM76.0404 2C76.0404 3.10457 75.1429 4 74.0358 4C72.9287 4 72.0312 3.10457 72.0312 2C72.0312 0.895431 72.9287 0 74.0358 0C75.1429 0 76.0404 0.895431 76.0404 2ZM56.028 4C57.1351 4 58.0326 3.10457 58.0326 2C58.0326 0.895431 57.1351 0 56.028 0C54.9209 0 54.0234 0.895431 54.0234 2C54.0234 3.10457 54.9209 4 56.028 4ZM40.0248 2C40.0248 3.10457 39.1273 4 38.0202 4C36.9131 4 36.0156 3.10457 36.0156 2C36.0156 0.895431 36.9131 0 38.0202 0C39.1273 0 40.0248 0.895431 40.0248 2ZM20.0124 4C21.1195 4 22.017 3.10457 22.017 2C22.017 0.895431 21.1195 0 20.0124 0C18.9053 0 18.0078 0.895431 18.0078 2C18.0078 3.10457 18.9053 4 20.0124 4ZM4.00917 2C4.00917 3.10457 3.11169 4 2.00459 4C0.897484 4 0 3.10457 0 2C0 0.895431 0.897484 0 2.00459 0C3.11169 0 4.00917 0.895431 4.00917 2Z" fill="#7282A0"/>
</svg>
